<svg width="40" height="40" viewBox="0 0 40 40" fill="none" xmlns="http://www.w3.org/2000/svg">
<path d="M22.0559 0C24.3059 0.006 25.4479 0.018 26.4339 0.046L26.8219 0.0599999C27.2699 0.0759999 27.7119 0.0959999 28.2459 0.12C30.3739 0.22 31.8259 0.556 33.0999 1.05C34.4199 1.558 35.5319 2.246 36.6439 3.356C37.6609 4.35579 38.4478 5.56518 38.9499 6.9C39.4439 8.174 39.7799 9.626 39.8799 11.756C39.9039 12.288 39.9239 12.73 39.9399 13.18L39.9519 13.568C39.9819 14.552 39.9939 15.694 39.9979 17.944L39.9999 19.436V22.056C40.0048 23.5148 39.9895 24.9736 39.9539 26.432L39.9419 26.82C39.9259 27.27 39.9059 27.712 39.8819 28.244C39.7819 30.374 39.4419 31.824 38.9499 33.1C38.4493 34.4356 37.6622 35.6452 36.6439 36.644C35.6439 37.6606 34.4346 38.4475 33.0999 38.95C31.8259 39.444 30.3739 39.78 28.2459 39.88C27.7714 39.9023 27.2967 39.9223 26.8219 39.94L26.4339 39.952C25.4479 39.98 24.3059 39.994 22.0559 39.998L20.5639 40H17.9459C16.4865 40.005 15.027 39.9897 13.5679 39.954L13.1799 39.942C12.7052 39.924 12.2305 39.9034 11.7559 39.88C9.62793 39.78 8.17593 39.444 6.89993 38.95C5.56527 38.4487 4.35637 37.6617 3.35793 36.644C2.34002 35.6446 1.55238 34.4351 1.04993 33.1C0.555933 31.826 0.219933 30.374 0.119933 28.244C0.0976508 27.7694 0.0776506 27.2948 0.0599332 26.82L0.0499335 26.432C0.0130776 24.9736 -0.00359087 23.5148 -6.67017e-05 22.056V17.944C-0.00564863 16.4852 0.00901959 15.0264 0.0439334 13.568L0.0579334 13.18C0.0739334 12.73 0.0939333 12.288 0.117933 11.756C0.217933 9.626 0.553933 8.176 1.04793 6.9C1.55016 5.56381 2.33937 4.35405 3.35993 3.356C4.35812 2.33895 5.56622 1.55197 6.89993 1.05C8.17593 0.556 9.62593 0.22 11.7559 0.12C12.2879 0.0959999 12.7319 0.0759999 13.1799 0.0599999L13.5679 0.0479999C15.0263 0.0124654 16.4851 -0.0028694 17.9439 0.00199986L22.0559 0ZM19.9999 10C17.3478 10 14.8042 11.0536 12.9289 12.9289C11.0535 14.8043 9.99993 17.3478 9.99993 20C9.99993 22.6522 11.0535 25.1957 12.9289 27.0711C14.8042 28.9464 17.3478 30 19.9999 30C22.6521 30 25.1956 28.9464 27.071 27.0711C28.9464 25.1957 29.9999 22.6522 29.9999 20C29.9999 17.3478 28.9464 14.8043 27.071 12.9289C25.1956 11.0536 22.6521 10 19.9999 10ZM19.9999 14C20.7879 13.9999 21.5681 14.1549 22.2961 14.4563C23.0241 14.7577 23.6856 15.1996 24.2429 15.7567C24.8001 16.3137 25.2422 16.9751 25.5438 17.703C25.8455 18.4309 26.0008 19.2111 26.0009 19.999C26.0011 20.7869 25.846 21.5672 25.5446 22.2952C25.2432 23.0232 24.8013 23.6847 24.2443 24.2419C23.6872 24.7992 23.0259 25.2412 22.298 25.5429C21.5701 25.8445 20.7899 25.9999 20.0019 26C18.4106 26 16.8845 25.3679 15.7593 24.2426C14.6341 23.1174 14.0019 21.5913 14.0019 20C14.0019 18.4087 14.6341 16.8826 15.7593 15.7574C16.8845 14.6321 18.4106 14 20.0019 14M30.5019 7C29.8389 7 29.203 7.26339 28.7342 7.73223C28.2653 8.20107 28.0019 8.83696 28.0019 9.5C28.0019 10.163 28.2653 10.7989 28.7342 11.2678C29.203 11.7366 29.8389 12 30.5019 12C31.165 12 31.8009 11.7366 32.2697 11.2678C32.7385 10.7989 33.0019 10.163 33.0019 9.5C33.0019 8.83696 32.7385 8.20107 32.2697 7.73223C31.8009 7.26339 31.165 7 30.5019 7Z" fill="white"/>
</svg>
